<?xml version="1.0" standalone="no"?><!DOCTYPE svg PUBLIC "-//W3C//DTD SVG 1.1//EN" "http://www.w3.org/Graphics/SVG/1.1/DTD/svg11.dtd"><svg t="1760237183040" class="icon" viewBox="0 0 1024 1024" version="1.1" xmlns="http://www.w3.org/2000/svg" p-id="28270" width="256" height="256" xmlns:xlink="http://www.w3.org/1999/xlink"><path d="M862.315789 0c-32.336842 0-377.263158 107.789474-592.842105 689.852632v21.557894s-5.389474 5.389474-5.389473 16.168421c-5.389474 5.389474-43.115789 91.621053-91.621053 247.91579-5.389474 16.168421-10.778947 37.726316-10.778947 48.505263 43.115789-53.894737 156.294737-269.473684 167.073684-285.642105 43.115789-48.505263 269.473684-420.378947 323.368421-458.105263-21.557895 64.673684-307.2 538.947368-317.978948 549.726315 215.578947 48.505263 307.2-75.452632 323.368421-86.231579l-97.010526-16.168421 113.178948-37.726315C754.526316 609.010526 776.084211 485.052632 776.084211 485.052632c-10.778947 5.389474-102.4 32.336842-118.568422 37.726315l123.957895-70.063158c10.778947-37.726316 75.452632-194.021053 80.842105-452.715789z" fill="#3177FD" p-id="28271"></path></svg>